<svg xmlns="http://www.w3.org/2000/svg" xmlns:xlink="http://www.w3.org/1999/xlink" width="1200" zoomAndPan="magnify" viewBox="0 0 900 907.92" height="1200" preserveAspectRatio="xMidYMid meet" version="1.0"><defs><clipPath id="156f79f7cb"><path d="M 391 12.066406 L 507 12.066406 L 507 301 L 391 301 Z M 391 12.066406 " clip-rule="nonzero"/></clipPath><clipPath id="08078fe977"><path d="M 12.105469 391 L 302 391 L 302 507 L 12.105469 507 Z M 12.105469 391 " clip-rule="nonzero"/></clipPath></defs><path fill="#ff8f27" d="M 799.574219 587.601562 L 593.503906 496.839844 C 572.488281 487.628906 523.898438 468.070312 523.898438 448.609375 C 523.898438 429.144531 572.488281 409.589844 593.503906 400.378906 L 799.574219 309.613281 C 832.285156 295.183594 844.265625 255.023438 824.773438 225.117188 C 806.226562 196.632812 767.335938 190.179688 740.519531 210.972656 L 565.738281 356.707031 C 535.785156 380.0625 495.367188 414.332031 495.367188 448.609375 C 495.367188 482.882812 535.785156 517.15625 565.738281 540.511719 L 740.519531 686.246094 C 767.335938 707.035156 806.226562 700.582031 824.773438 672.101562 C 844.265625 642.191406 832.1875 602.035156 799.574219 587.601562 Z M 799.574219 587.601562 " fill-opacity="1" fill-rule="nonzero"/><path fill="#ff8f27" d="M 403.316406 448.609375 C 403.316406 414.332031 375.648438 392.6875 345.597656 369.425781 L 158.167969 210.972656 C 131.351562 190.179688 92.460938 196.632812 73.917969 225.117188 C 54.421875 255.023438 66.5 295.183594 99.117188 309.613281 L 305.183594 400.378906 C 326.199219 409.589844 374.789062 429.144531 374.789062 448.609375 C 374.789062 468.070312 326.199219 487.628906 305.183594 496.839844 L 99.117188 587.601562 C 66.40625 602.035156 54.421875 642.191406 73.917969 672.101562 C 92.460938 700.582031 131.351562 707.035156 158.167969 686.246094 L 345.691406 527.792969 C 375.648438 504.433594 403.414062 482.882812 403.414062 448.609375 Z M 403.316406 448.609375 " fill-opacity="1" fill-rule="nonzero"/><path fill="#ff8f27" d="M 528.652344 552.191406 C 505.257812 522.28125 483.671875 494.558594 449.34375 494.558594 C 415.019531 494.558594 393.332031 522.183594 370.035156 552.191406 L 211.328125 739.316406 C 190.5 766.089844 196.96875 804.921875 225.496094 823.4375 C 255.449219 842.898438 295.675781 830.839844 310.128906 798.277344 L 401.039062 592.539062 C 410.261719 571.554688 429.851562 523.042969 449.34375 523.042969 C 468.839844 523.042969 488.429688 571.554688 497.652344 592.539062 L 588.558594 798.277344 C 603.015625 830.933594 643.238281 842.898438 673.191406 823.4375 C 701.71875 804.921875 708.1875 766.089844 687.359375 739.316406 Z M 528.652344 552.191406 " fill-opacity="1" fill-rule="nonzero"/><path fill="#ff8f27" d="M 370.035156 345.023438 C 393.429688 374.929688 415.019531 402.65625 449.34375 402.65625 C 483.671875 402.65625 505.355469 375.023438 528.652344 345.023438 L 687.359375 157.894531 C 708.1875 131.121094 701.71875 92.292969 673.191406 73.777344 C 643.238281 54.316406 603.015625 66.371094 588.558594 98.9375 L 497.652344 304.675781 C 488.429688 325.65625 468.839844 374.171875 449.34375 374.171875 C 429.851562 374.171875 410.261719 325.65625 401.039062 304.675781 L 310.128906 98.9375 C 295.675781 66.277344 255.449219 54.316406 225.496094 73.777344 C 196.96875 92.292969 190.5 131.121094 211.328125 157.894531 Z M 370.035156 345.023438 " fill-opacity="1" fill-rule="nonzero"/><path fill="#ff8f27" d="M 449.34375 596.429688 C 425.191406 596.429688 392.191406 820.585938 392.191406 820.585938 C 388.007812 854.859375 414.824219 885.050781 449.34375 885.050781 C 483.957031 885.050781 510.679688 854.859375 506.496094 820.585938 C 506.496094 820.585938 473.5 596.429688 449.34375 596.429688 Z M 449.34375 596.429688 " fill-opacity="1" fill-rule="nonzero"/><g clip-path="url(#156f79f7cb)"><path fill="#ff8f27" d="M 449.347656 300.6875 C 473.5 300.6875 506.496094 76.53125 506.496094 76.53125 C 510.679688 42.257812 483.863281 12.066406 449.347656 12.066406 C 414.730469 12.066406 388.007812 42.257812 392.195312 76.53125 C 392.195312 76.53125 425.195312 300.6875 449.347656 300.6875 Z M 449.347656 300.6875 " fill-opacity="1" fill-rule="nonzero"/></g><g clip-path="url(#08078fe977)"><path fill="#ff8f27" d="M 76.675781 505.664062 C 76.675781 505.664062 301.191406 472.722656 301.191406 448.605469 C 301.191406 424.492188 76.675781 391.546875 76.675781 391.546875 C 42.347656 387.371094 12.105469 414.140625 12.105469 448.605469 C 12.105469 483.066406 42.347656 509.839844 76.675781 505.664062 Z M 76.675781 505.664062 " fill-opacity="1" fill-rule="nonzero"/></g><path fill="#ff8f27" d="M 822.015625 391.546875 C 822.015625 391.546875 597.5 424.492188 597.5 448.605469 C 597.5 472.722656 822.015625 505.664062 822.015625 505.664062 C 856.339844 509.839844 886.578125 483.066406 886.578125 448.605469 C 886.578125 414.140625 856.339844 387.371094 822.015625 391.546875 Z M 822.015625 391.546875 " fill-opacity="1" fill-rule="nonzero"/></svg>