<svg xmlns="http://www.w3.org/2000/svg" xmlns:xlink="http://www.w3.org/1999/xlink" width="1200" zoomAndPan="magnify" viewBox="0 0 900 899.99999" height="1200" preserveAspectRatio="xMidYMid meet" version="1.0"><defs><clipPath id="84528cf302"><path d="M 8.109375 213.789062 L 891.609375 213.789062 L 891.609375 686.289062 L 8.109375 686.289062 Z M 8.109375 213.789062 " clip-rule="nonzero"/></clipPath></defs><g clip-path="url(#84528cf302)"><path fill="#ff4f3f" d="M 665.550781 686.207031 L 557.859375 578.519531 L 450.171875 686.207031 L 342.484375 578.519531 L 234.792969 686.207031 L 127.105469 578.519531 L 29.65625 675.96875 L 8.648438 655.136719 L 126.753906 537.03125 L 234.441406 644.722656 L 342.128906 537.03125 L 449.820312 644.722656 L 557.507812 537.03125 L 665.195312 644.722656 L 772.886719 537.03125 L 891.34375 655.136719 L 870.6875 675.792969 L 773.238281 578.34375 Z M 665.550781 578.519531 L 557.859375 470.832031 L 450.171875 578.519531 L 342.484375 470.832031 L 234.792969 578.519531 L 127.105469 470.832031 L 29.65625 568.28125 L 8.648438 547.449219 L 126.753906 429.34375 L 234.441406 537.03125 L 342.128906 429.34375 L 449.820312 537.03125 L 557.507812 429.34375 L 665.195312 537.03125 L 772.886719 429.34375 L 891.34375 547.449219 L 870.6875 568.105469 L 773.238281 470.652344 Z M 665.550781 470.652344 L 557.859375 362.964844 L 450.171875 470.652344 L 342.484375 362.964844 L 234.792969 470.652344 L 127.105469 362.964844 L 29.65625 460.414062 L 8.648438 439.582031 L 126.753906 321.480469 L 234.441406 429.167969 L 342.128906 321.480469 L 449.820312 429.167969 L 557.507812 321.480469 L 665.195312 429.167969 L 772.886719 321.480469 L 890.988281 439.582031 L 870.335938 460.238281 L 772.886719 362.789062 Z M 665.550781 362.964844 L 557.859375 255.277344 L 450.171875 362.964844 L 342.484375 255.277344 L 234.792969 362.964844 L 127.105469 255.277344 L 29.304688 352.550781 L 8.648438 331.894531 L 126.753906 213.789062 L 234.441406 321.480469 L 342.128906 213.789062 L 449.820312 321.480469 L 557.507812 213.789062 L 665.195312 321.480469 L 772.886719 213.789062 L 891.34375 331.894531 L 870.6875 352.550781 L 773.238281 255.101562 Z M 665.550781 362.964844 " fill-opacity="1" fill-rule="nonzero"/></g></svg>