<svg xmlns="http://www.w3.org/2000/svg" xmlns:xlink="http://www.w3.org/1999/xlink" width="200" zoomAndPan="magnify" viewBox="0 0 150 30.000001" height="40" preserveAspectRatio="xMidYMid meet" version="1.0"><defs><clipPath id="c814275276"><path d="M 18 1.734375 L 132 1.734375 L 132 23 L 18 23 Z M 18 1.734375 " clip-rule="nonzero"/></clipPath><clipPath id="4cce17560f"><path d="M 119 7 L 136 7 L 136 27.136719 L 119 27.136719 Z M 119 7 " clip-rule="nonzero"/></clipPath></defs><g clip-path="url(#c814275276)"><path fill="#ff4f3f" d="M 18.878906 6.574219 C 21.828125 9.210938 24.976562 11.585938 28.324219 13.699219 C 30.628906 15.164062 33.085938 16.300781 35.695312 17.105469 C 37.527344 17.675781 39.402344 17.878906 41.3125 17.710938 C 42.570312 17.585938 43.777344 17.261719 44.925781 16.734375 C 46.078125 16.210938 47.109375 15.515625 48.03125 14.648438 C 49.015625 13.71875 49.800781 12.605469 50.753906 11.640625 C 50.984375 11.40625 51.261719 11.210938 51.484375 10.972656 C 51.507812 10.949219 50.996094 11.316406 51.214844 11.183594 C 51.285156 11.140625 51.347656 11.085938 51.417969 11.042969 C 51.574219 10.9375 51.734375 10.839844 51.898438 10.75 C 51.976562 10.710938 52.054688 10.675781 52.128906 10.636719 C 52.339844 10.527344 52.367188 10.660156 51.878906 10.738281 C 52.03125 10.699219 52.179688 10.648438 52.328125 10.589844 C 52.484375 10.546875 52.648438 10.507812 52.808594 10.476562 C 52.902344 10.457031 53.007812 10.449219 53.101562 10.425781 C 52.363281 10.609375 52.589844 10.484375 52.8125 10.472656 C 53.085938 10.453125 53.359375 10.449219 53.632812 10.460938 C 53.78125 10.449219 53.921875 10.460938 54.066406 10.496094 C 54.09375 10.511719 53.328125 10.367188 53.707031 10.453125 C 53.796875 10.472656 53.882812 10.484375 53.972656 10.503906 C 54.238281 10.558594 54.496094 10.628906 54.753906 10.714844 C 54.890625 10.757812 55.027344 10.8125 55.164062 10.859375 C 55.253906 10.894531 55.460938 10.984375 55.0625 10.816406 C 54.625 10.628906 54.960938 10.773438 55.0625 10.820312 C 55.605469 11.074219 56.132812 11.371094 56.632812 11.707031 C 56.875 11.867188 57.109375 12.035156 57.34375 12.207031 C 57.753906 12.507812 56.925781 11.875 57.25 12.132812 C 57.390625 12.242188 57.527344 12.355469 57.664062 12.46875 C 59.539062 14.019531 61.15625 15.847656 63.019531 17.414062 C 64.910156 19 67.339844 20.558594 69.921875 19.738281 C 72.714844 18.859375 73.867188 16.117188 74.425781 13.472656 C 74.675781 12.277344 74.847656 11.0625 75.09375 9.863281 C 75.207031 9.316406 75.332031 8.765625 75.496094 8.230469 C 75.570312 7.988281 75.660156 7.753906 75.746094 7.515625 C 75.878906 7.152344 75.433594 8.175781 75.679688 7.683594 C 75.738281 7.574219 75.789062 7.464844 75.851562 7.355469 C 75.910156 7.25 75.976562 7.152344 76.039062 7.050781 C 76.074219 7.007812 76.109375 6.957031 76.136719 6.910156 C 76.140625 6.925781 75.683594 7.429688 75.898438 7.222656 C 75.96875 7.15625 76.03125 7.074219 76.097656 7.007812 C 76.140625 6.96875 76.183594 6.933594 76.222656 6.894531 C 76.496094 6.601562 75.953125 7.152344 75.929688 7.113281 C 76.019531 7.050781 76.113281 6.992188 76.210938 6.941406 C 76.574219 6.71875 75.933594 7.050781 75.933594 7.046875 C 76.089844 7.015625 76.242188 6.976562 76.390625 6.925781 C 75.726562 7.132812 75.78125 6.972656 76.21875 6.972656 C 76.300781 6.972656 76.382812 6.984375 76.464844 6.984375 C 76.921875 6.988281 75.761719 6.847656 76.128906 6.9375 C 76.476562 7.019531 76.800781 7.125 77.140625 7.234375 C 76.195312 6.929688 76.839844 7.105469 77.109375 7.242188 C 77.308594 7.34375 77.507812 7.457031 77.699219 7.574219 C 78.085938 7.804688 78.453125 8.058594 78.8125 8.328125 C 78.863281 8.363281 78.910156 8.398438 78.960938 8.4375 C 79.1875 8.601562 78.445312 8.03125 78.667969 8.207031 C 78.753906 8.277344 78.839844 8.34375 78.925781 8.414062 C 79.128906 8.578125 79.328125 8.742188 79.523438 8.914062 C 79.941406 9.269531 80.347656 9.640625 80.746094 10.015625 C 84.085938 13.160156 86.945312 16.824219 90.476562 19.757812 C 92.152344 21.152344 93.960938 22.429688 96.195312 22.636719 C 98.984375 22.898438 100.953125 20.59375 101.679688 18.144531 C 102.359375 15.871094 102.328125 13.46875 103.0625 11.203125 C 103.152344 10.929688 102.792969 11.792969 102.921875 11.535156 C 102.953125 11.480469 102.976562 11.417969 103.007812 11.359375 C 103.054688 11.257812 103.109375 11.160156 103.164062 11.066406 C 103.175781 11.046875 103.367188 10.75 103.367188 10.753906 C 103.398438 10.78125 102.902344 11.273438 103.140625 11.054688 C 103.183594 11.015625 103.21875 10.964844 103.261719 10.921875 C 103.34375 10.835938 103.441406 10.765625 103.527344 10.679688 C 103.011719 11.199219 103.136719 10.984375 103.382812 10.828125 C 103.4375 10.792969 103.488281 10.765625 103.546875 10.742188 C 103.632812 10.777344 102.921875 10.925781 103.148438 10.910156 C 103.269531 10.886719 103.386719 10.851562 103.496094 10.804688 C 103.957031 10.667969 102.953125 10.828125 103.207031 10.839844 C 103.296875 10.84375 103.390625 10.835938 103.484375 10.832031 C 104 10.824219 103.113281 10.761719 103.203125 10.78125 C 103.324219 10.8125 103.445312 10.828125 103.566406 10.859375 C 103.664062 10.886719 103.761719 10.917969 103.855469 10.949219 C 104.296875 11.105469 103.785156 10.867188 103.625 10.84375 C 103.894531 10.929688 104.144531 11.054688 104.375 11.21875 C 105.5 11.894531 106.589844 12.625 107.644531 13.414062 C 109.070312 14.4375 110.554688 15.375 112.089844 16.230469 C 115.789062 18.25 119.730469 19.566406 123.902344 20.179688 C 125.628906 20.4375 127.367188 20.59375 129.109375 20.644531 C 129.449219 20.640625 129.773438 20.574219 130.082031 20.445312 C 130.394531 20.3125 130.667969 20.128906 130.90625 19.890625 C 131.144531 19.652344 131.328125 19.378906 131.460938 19.066406 C 131.589844 18.757812 131.65625 18.433594 131.660156 18.097656 C 131.652344 17.761719 131.585938 17.4375 131.453125 17.128906 C 131.320312 16.820312 131.136719 16.546875 130.898438 16.308594 C 130.660156 16.070312 130.386719 15.886719 130.078125 15.753906 C 129.769531 15.621094 129.445312 15.554688 129.109375 15.546875 C 128.34375 15.527344 127.578125 15.488281 126.816406 15.425781 C 126.449219 15.394531 126.085938 15.359375 125.722656 15.320312 C 125.507812 15.277344 125.292969 15.25 125.074219 15.242188 C 125.125 15.238281 125.707031 15.332031 125.257812 15.261719 C 125.117188 15.242188 124.976562 15.222656 124.839844 15.199219 C 122.90625 14.902344 121.019531 14.4375 119.167969 13.8125 C 118.71875 13.660156 118.273438 13.5 117.832031 13.328125 C 117.703125 13.277344 117.574219 13.226562 117.449219 13.175781 C 117.003906 13 117.390625 13.15625 117.476562 13.191406 C 117.183594 13.070312 116.890625 12.9375 116.601562 12.804688 C 115.691406 12.382812 114.804688 11.921875 113.933594 11.421875 C 112.464844 10.574219 111.070312 9.617188 109.6875 8.640625 C 107.503906 7.09375 105.136719 5.316406 102.296875 5.859375 C 99.328125 6.425781 98.042969 9.394531 97.585938 12.0625 C 97.378906 13.265625 97.265625 14.484375 97.03125 15.683594 C 96.925781 16.222656 96.78125 16.75 96.605469 17.269531 C 96.445312 17.746094 96.867188 16.753906 96.695312 17.066406 C 96.632812 17.175781 96.585938 17.292969 96.523438 17.402344 C 96.460938 17.507812 96.394531 17.605469 96.328125 17.707031 C 96.144531 18 96.816406 17.191406 96.449219 17.53125 C 96.414062 17.566406 96.238281 17.777344 96.195312 17.769531 C 96.136719 17.753906 96.808594 17.367188 96.503906 17.523438 C 96.453125 17.546875 96.402344 17.585938 96.355469 17.613281 C 96.238281 17.679688 95.878906 17.828125 96.402344 17.609375 C 96.925781 17.386719 96.578125 17.542969 96.449219 17.570312 C 96.386719 17.578125 96.324219 17.59375 96.265625 17.609375 C 95.945312 17.710938 97.011719 17.578125 96.671875 17.550781 C 96.527344 17.542969 96.367188 17.542969 96.222656 17.542969 C 96.9375 17.535156 96.820312 17.648438 96.402344 17.542969 C 96.234375 17.503906 96.078125 17.445312 95.914062 17.386719 C 95.480469 17.242188 96.457031 17.644531 96.210938 17.515625 C 96.136719 17.476562 96.0625 17.445312 95.988281 17.410156 C 95.796875 17.316406 95.613281 17.214844 95.433594 17.105469 C 95.070312 16.886719 94.71875 16.652344 94.378906 16.398438 C 94.011719 16.125 94.433594 16.472656 94.578125 16.554688 C 94.476562 16.488281 94.382812 16.414062 94.296875 16.328125 C 94.101562 16.171875 93.910156 16.011719 93.71875 15.847656 C 92.902344 15.140625 92.125 14.390625 91.363281 13.621094 C 89.695312 11.945312 88.105469 10.199219 86.460938 8.503906 C 84.855469 6.789062 83.117188 5.230469 81.242188 3.816406 C 79.738281 2.722656 77.835938 1.742188 75.917969 1.890625 C 75.230469 1.929688 74.578125 2.09375 73.957031 2.386719 C 73.332031 2.679688 72.789062 3.082031 72.324219 3.585938 C 71.421875 4.65625 70.808594 5.871094 70.480469 7.226562 C 69.863281 9.464844 69.777344 11.835938 68.996094 14.027344 C 68.957031 14.132812 68.902344 14.242188 68.871094 14.351562 C 69.085938 13.585938 69.054688 13.9375 68.933594 14.179688 C 68.824219 14.398438 68.703125 14.605469 68.570312 14.808594 C 68.296875 15.234375 68.910156 14.449219 68.707031 14.632812 C 68.636719 14.699219 68.570312 14.777344 68.503906 14.847656 C 68.464844 14.886719 68.417969 14.917969 68.382812 14.957031 C 68.195312 15.15625 68.9375 14.582031 68.703125 14.710938 C 68.597656 14.769531 68.484375 14.839844 68.382812 14.90625 C 68.085938 15.101562 69.066406 14.6875 68.644531 14.800781 C 68.546875 14.824219 68.449219 14.855469 68.351562 14.882812 C 67.929688 15.007812 68.59375 14.792969 68.707031 14.84375 C 68.597656 14.835938 68.488281 14.839844 68.378906 14.855469 C 68.292969 14.851562 68.207031 14.839844 68.125 14.839844 C 68.957031 14.847656 68.71875 14.929688 68.433594 14.867188 C 68.230469 14.820312 68.039062 14.738281 67.839844 14.675781 C 68.75 14.957031 68.089844 14.78125 67.808594 14.625 C 67.585938 14.5 67.371094 14.363281 67.160156 14.21875 C 67.070312 14.15625 66.980469 14.09375 66.890625 14.027344 C 66.839844 13.988281 66.789062 13.949219 66.734375 13.910156 C 66.523438 13.761719 67.125 14.203125 67.054688 14.160156 C 66.816406 13.992188 66.59375 13.808594 66.386719 13.605469 C 65.488281 12.828125 64.644531 11.988281 63.792969 11.164062 C 61.9375 9.371094 59.957031 7.46875 57.582031 6.394531 C 54.667969 5.074219 51.171875 4.867188 48.492188 6.894531 C 47.277344 7.8125 46.367188 8.933594 45.363281 10.066406 C 45.125 10.335938 44.878906 10.597656 44.625 10.851562 C 44.363281 11.109375 44.03125 11.324219 43.789062 11.59375 C 43.820312 11.5625 44.304688 11.226562 43.960938 11.457031 C 43.878906 11.507812 43.800781 11.566406 43.71875 11.621094 C 43.574219 11.71875 43.425781 11.8125 43.273438 11.898438 C 43.117188 11.988281 42.957031 12.074219 42.792969 12.15625 C 42.695312 12.195312 42.597656 12.238281 42.503906 12.289062 C 43.003906 11.960938 43.019531 12.082031 42.828125 12.152344 C 42.222656 12.375 41.601562 12.542969 40.964844 12.660156 C 40.539062 12.738281 41.476562 12.601562 41.347656 12.609375 C 41.257812 12.613281 41.167969 12.628906 41.078125 12.636719 C 40.890625 12.65625 40.707031 12.667969 40.519531 12.671875 C 40.132812 12.6875 39.75 12.679688 39.367188 12.652344 C 39.152344 12.636719 38.941406 12.613281 38.730469 12.589844 C 38.378906 12.554688 39.511719 12.710938 39.039062 12.632812 C 38.910156 12.609375 38.785156 12.589844 38.660156 12.570312 C 38.195312 12.484375 37.738281 12.378906 37.285156 12.253906 C 36.78125 12.117188 36.285156 11.957031 35.796875 11.777344 C 35.523438 11.679688 35.25 11.574219 34.980469 11.464844 C 34.496094 11.269531 35.257812 11.585938 35.117188 11.523438 C 34.957031 11.453125 34.796875 11.382812 34.636719 11.308594 C 31.847656 9.984375 29.234375 8.378906 26.792969 6.496094 C 26.625 6.367188 26.457031 6.242188 26.289062 6.113281 C 26.191406 6.039062 26.09375 5.964844 25.996094 5.886719 C 26.445312 6.242188 26.164062 6.019531 26.066406 5.941406 C 25.691406 5.640625 25.308594 5.34375 24.933594 5.039062 C 24.105469 4.363281 23.289062 3.675781 22.480469 2.972656 C 21.476562 2.097656 19.851562 1.910156 18.878906 2.972656 C 17.996094 3.929688 17.804688 5.640625 18.878906 6.574219 Z M 18.878906 6.574219 " fill-opacity="1" fill-rule="nonzero"/></g><g clip-path="url(#4cce17560f)"><path fill="#ff4f3f" d="M 122.773438 12.011719 L 126.246094 15.574219 L 129.695312 19.113281 L 131.644531 21.113281 L 132.160156 17.109375 L 127.667969 19.242188 L 123.175781 21.371094 L 120.652344 22.566406 C 120.203125 22.820312 119.867188 23.179688 119.644531 23.644531 C 119.421875 24.109375 119.351562 24.597656 119.433594 25.105469 C 119.449219 25.449219 119.550781 25.765625 119.738281 26.054688 L 120.136719 26.570312 C 120.453125 26.886719 120.828125 27.105469 121.261719 27.222656 L 121.9375 27.316406 C 122.398438 27.316406 122.828125 27.199219 123.226562 26.96875 L 127.71875 24.835938 L 132.210938 22.707031 L 134.730469 21.511719 C 135.117188 21.285156 135.421875 20.980469 135.648438 20.597656 C 135.832031 20.308594 135.933594 19.992188 135.949219 19.648438 C 136.027344 19.308594 136.011719 18.96875 135.902344 18.632812 C 135.785156 18.199219 135.566406 17.824219 135.25 17.507812 L 131.777344 13.949219 L 128.328125 10.40625 L 126.378906 8.40625 C 126.136719 8.175781 125.859375 8 125.546875 7.875 C 125.234375 7.75 124.910156 7.691406 124.578125 7.691406 C 124.242188 7.691406 123.917969 7.75 123.605469 7.875 C 123.292969 8 123.015625 8.175781 122.773438 8.40625 L 122.375 8.921875 C 122.144531 9.320312 122.027344 9.75 122.027344 10.210938 L 122.117188 10.886719 C 122.238281 11.320312 122.457031 11.695312 122.773438 12.011719 Z M 122.773438 12.011719 " fill-opacity="1" fill-rule="nonzero"/></g></svg>