<svg xmlns="http://www.w3.org/2000/svg" xmlns:xlink="http://www.w3.org/1999/xlink" width="300" zoomAndPan="magnify" viewBox="0 0 224.87999 30.000001" height="40" preserveAspectRatio="xMidYMid meet" version="1.0"><defs><clipPath id="1d323075c9"><path d="M 11.097656 0.296875 L 198 0.296875 L 198 29 L 11.097656 29 Z M 11.097656 0.296875 " clip-rule="nonzero"/></clipPath><clipPath id="5dd1233ce8"><path d="M 60 15 L 203.4375 15 L 203.4375 29 L 60 29 Z M 60 15 " clip-rule="nonzero"/></clipPath></defs><g clip-path="url(#1d323075c9)"><path fill="#ff8f27" d="M 197.546875 3.265625 C 196.710938 3.457031 195.882812 3.738281 195.039062 3.820312 C 192.972656 4.011719 190.898438 4.214844 188.828125 4.230469 C 175.992188 4.308594 163.179688 4.925781 150.390625 5.988281 C 138.332031 6.988281 126.273438 7.980469 114.242188 9.246094 C 83.738281 12.453125 53.535156 17.449219 23.800781 25.070312 C 20.335938 25.957031 16.933594 27.082031 13.507812 28.121094 C 12.320312 28.484375 11.695312 28.441406 11.402344 27.867188 C 11.085938 27.25 11.457031 26.5 12.550781 25.941406 C 13.890625 25.261719 15.261719 24.628906 16.667969 24.101562 C 28.832031 19.519531 41.304688 15.964844 53.925781 12.910156 C 67.773438 9.554688 81.808594 7.277344 95.957031 5.65625 C 110.046875 4.046875 124.164062 2.78125 138.316406 1.902344 C 151.847656 1.066406 165.382812 0.339844 178.949219 0.472656 C 183.671875 0.519531 188.40625 0.582031 193.085938 1.355469 C 194.308594 1.558594 195.503906 1.933594 196.699219 2.277344 C 197.011719 2.363281 197.277344 2.613281 197.566406 2.785156 C 197.558594 2.945312 197.554688 3.105469 197.546875 3.265625 Z M 197.546875 3.265625 " fill-opacity="1" fill-rule="nonzero"/></g><g clip-path="url(#5dd1233ce8)"><path fill="#ff8f27" d="M 203.605469 20.875 C 202.921875 21.015625 202.238281 21.253906 201.546875 21.28125 C 198.28125 21.417969 195.007812 21.679688 191.75 21.570312 C 178.089844 21.117188 164.429688 21.128906 150.777344 21.597656 C 137.644531 22.046875 124.511719 22.519531 111.394531 23.304688 C 101.34375 23.90625 91.316406 24.957031 81.289062 25.90625 C 76.746094 26.335938 72.214844 26.949219 67.691406 27.585938 C 66.164062 27.800781 64.675781 28.308594 63.179688 28.730469 C 62.222656 29.003906 61.507812 28.859375 61.109375 28.207031 C 60.722656 27.574219 60.792969 26.617188 61.460938 26.078125 C 62.136719 25.535156 62.914062 25.03125 63.730469 24.773438 C 66.253906 23.988281 68.792969 23.214844 71.371094 22.640625 C 84.574219 19.695312 97.945312 17.9375 111.453125 17.195312 C 129.40625 16.203125 147.367188 15.722656 165.34375 16.097656 C 173.695312 16.269531 182.046875 16.820312 190.390625 17.332031 C 194.382812 17.574219 198.324219 18.304688 202.136719 19.589844 C 202.683594 19.773438 203.183594 20.085938 203.707031 20.339844 C 203.671875 20.515625 203.640625 20.695312 203.605469 20.875 Z M 203.605469 20.875 " fill-opacity="1" fill-rule="nonzero"/></g></svg>