<svg xmlns="http://www.w3.org/2000/svg" xmlns:xlink="http://www.w3.org/1999/xlink" width="2000" zoomAndPan="magnify" viewBox="0 0 1500 1499.999933" height="2000" preserveAspectRatio="xMidYMid meet" version="1.0"><defs><clipPath id="6d713ff2f7"><path d="M 92 323 L 1351 323 L 1351 1254 L 92 1254 Z M 92 323 " clip-rule="nonzero"/></clipPath><clipPath id="1916589ba0"><path d="M 33.199219 459.511719 L 1254.101562 163.589844 L 1466.632812 1040.449219 L 245.734375 1336.371094 Z M 33.199219 459.511719 " clip-rule="nonzero"/></clipPath><clipPath id="8f7d130534"><path d="M 33.199219 459.511719 L 1254.101562 163.589844 L 1466.632812 1040.449219 L 245.734375 1336.371094 Z M 33.199219 459.511719 " clip-rule="nonzero"/></clipPath></defs><g clip-path="url(#6d713ff2f7)"><g clip-path="url(#1916589ba0)"><g clip-path="url(#8f7d130534)"><path fill="#9d89fc" d="M 1328.707031 577.886719 C 1333.277344 595.199219 1342.859375 605.527344 1350.734375 611.335938 C 1338.867188 627.417969 1326.925781 643.414062 1314.910156 659.351562 C 1301.847656 649.527344 1280.589844 628.644531 1271.289062 593.472656 C 1249.246094 622.96875 1226.945312 652.261719 1204.371094 681.351562 C 1178.59375 714.574219 1152.457031 747.53125 1125.921875 780.195312 C 1099.386719 812.855469 1072.433594 845.207031 1044.984375 877.1875 C 1017.53125 909.164062 989.566406 940.753906 960.925781 971.820312 C 932.269531 1002.875 902.949219 1033.417969 872.578125 1063.117188 C 842.203125 1092.808594 810.816406 1121.699219 777.574219 1149.007812 C 744.238281 1176.214844 709.316406 1202.183594 669.554688 1223.523438 C 649.601562 1234.0625 628.324219 1243.488281 604.308594 1249.324219 C 592.265625 1252.132812 579.472656 1254.007812 565.914062 1253.824219 C 559.140625 1253.742188 552.175781 1253.019531 545.199219 1251.769531 C 538.199219 1250.386719 531.207031 1248.339844 524.40625 1245.59375 C 517.644531 1242.730469 511.140625 1239.210938 505.109375 1235.089844 C 499.644531 1230.886719 494.105469 1227 489.253906 1221.925781 C 484.113281 1217.261719 479.8125 1211.6875 475.507812 1206.210938 C 473.585938 1203.316406 471.691406 1200.390625 469.832031 1197.453125 C 468.855469 1196 468.042969 1194.484375 467.289062 1192.945312 L 464.972656 1188.34375 C 459.019531 1176.035156 455.011719 1163.117188 453.039062 1150.582031 L 452.191406 1145.851562 L 451.683594 1141.195312 C 451.371094 1138.09375 450.988281 1134.964844 450.769531 1131.886719 C 450.585938 1125.816406 450.140625 1119.621094 450.433594 1113.710938 C 450.949219 1089.78125 454.652344 1067.160156 459.746094 1045.457031 C 464.839844 1023.726562 471.265625 1002.785156 478.347656 982.300781 C 492.574219 941.351562 509.355469 902.15625 526.800781 863.59375 C 544.261719 825.039062 562.507812 787.167969 580.5625 749.464844 C 598.617188 711.757812 616.535156 674.230469 633.1875 636.527344 C 649.75 598.859375 665.339844 560.898438 676.578125 522.929688 C 682.140625 503.988281 686.523438 485.027344 688.640625 466.796875 L 689.191406 460.058594 L 689.476562 456.695312 L 689.546875 453.425781 C 689.578125 451.253906 689.6875 449.050781 689.679688 446.910156 L 689.398438 440.640625 C 688.789062 432.457031 687.425781 424.835938 685.101562 418.367188 C 682.632812 412 679.367188 406.816406 675.074219 402.402344 C 673.980469 401.320312 673.027344 400.105469 671.644531 399.21875 L 669.757812 397.730469 C 669.113281 397.226562 668.605469 396.683594 667.734375 396.222656 C 666.160156 395.261719 664.601562 394.277344 663.054688 393.269531 L 658.128906 390.777344 C 651.441406 387.695312 644.207031 385.570312 636.457031 384.367188 C 628.71875 383.128906 620.363281 383.171875 611.84375 383.769531 C 594.722656 385.066406 576.679688 389.910156 558.859375 396.347656 C 541.011719 402.996094 523.292969 411.402344 505.894531 420.847656 C 471.097656 439.898438 437.59375 462.957031 405.1875 487.660156 C 372.777344 512.433594 341.421875 539.019531 310.914062 566.667969 C 280.410156 594.335938 250.691406 623.03125 221.738281 652.515625 C 207.253906 667.246094 192.960938 682.183594 178.875 697.289062 C 171.828125 704.839844 164.839844 712.433594 157.921875 720.070312 C 151.050781 727.664062 144.046875 735.488281 137.582031 742.949219 L 92.507812 704.191406 C 99.746094 695.839844 106.699219 688.078125 113.863281 680.160156 C 120.992188 672.289062 128.167969 664.492188 135.394531 656.746094 C 149.847656 641.25 164.484375 625.953125 179.335938 610.847656 C 209.015625 580.625 239.519531 551.167969 271.003906 522.609375 C 302.5 494.074219 335.019531 466.476562 369.097656 440.421875 C 403.222656 414.433594 438.804688 389.824219 477.4375 368.65625 C 496.804688 358.144531 516.953125 348.511719 538.324219 340.558594 C 559.804688 332.824219 582.488281 326.460938 607.152344 324.507812 C 619.464844 323.617188 632.171875 323.558594 645.136719 325.554688 C 658.0625 327.511719 671.101562 331.238281 683.390625 336.964844 C 686.421875 338.484375 689.472656 339.976562 692.445312 341.59375 L 701.050781 346.984375 C 702.46875 347.8125 703.917969 349.019531 705.347656 350.109375 L 709.621094 353.480469 C 712.527344 355.628906 715.085938 358.316406 717.679688 360.941406 C 728.007812 371.476562 735.894531 384.472656 740.832031 397.679688 C 745.644531 410.921875 747.796875 424.097656 748.71875 436.746094 L 749.121094 446.152344 C 749.140625 449.242188 749.019531 452.265625 748.964844 455.324219 L 748.835938 459.898438 L 748.484375 464.351562 L 747.734375 473.253906 C 745.027344 496.609375 739.800781 518.527344 733.605469 539.71875 C 721.046875 582.023438 704.652344 621.613281 687.574219 660.519531 C 670.417969 699.371094 652.261719 737.371094 634.175781 775.136719 C 616.089844 812.90625 598.015625 850.4375 580.953125 888.117188 C 563.902344 925.777344 547.757812 963.621094 534.523438 1001.746094 C 527.933594 1020.796875 522.101562 1039.917969 517.644531 1058.933594 C 513.148438 1077.929688 510.238281 1096.871094 509.871094 1114.792969 C 509.605469 1119.34375 510.019531 1123.597656 510.085938 1127.984375 C 510.242188 1130.117188 510.53125 1132.183594 510.726562 1134.285156 L 511.039062 1137.429688 L 511.609375 1140.417969 C 512.832031 1148.558594 515.296875 1155.789062 518.40625 1162.292969 L 519.601562 1164.707031 C 519.96875 1165.53125 520.371094 1166.332031 520.902344 1167.027344 C 521.878906 1168.480469 522.820312 1169.953125 523.734375 1171.453125 C 526 1174.09375 527.957031 1176.96875 530.664062 1179.273438 C 532.964844 1181.886719 536.167969 1183.875 538.882812 1186.167969 C 541.507812 1187.933594 544.238281 1189.394531 547.097656 1190.648438 C 550.015625 1191.789062 553.082031 1192.703125 556.34375 1193.378906 C 559.671875 1193.925781 563.128906 1194.351562 566.824219 1194.382812 C 574.199219 1194.492188 582.28125 1193.421875 590.589844 1191.484375 C 607.292969 1187.457031 624.699219 1180.042969 641.671875 1171.019531 C 675.746094 1152.789062 708.46875 1128.746094 739.867188 1103.050781 C 771.296875 1077.238281 801.558594 1049.414062 831.015625 1020.613281 C 860.476562 991.804688 889.132812 961.960938 917.226562 931.519531 C 945.308594 901.058594 972.820312 869.980469 999.882812 838.460938 C 1026.9375 806.941406 1053.554688 774.992188 1079.785156 742.703125 C 1106.019531 710.417969 1131.882812 677.800781 1157.40625 644.910156 C 1179.753906 616.109375 1201.84375 587.097656 1223.660156 557.894531 C 1187.421875 558.722656 1161.621094 543.761719 1148.570312 533.941406 C 1160.175781 518.546875 1171.707031 503.101562 1183.140625 487.613281 C 1191.011719 493.417969 1203.644531 499.648438 1221.371094 499.0625 C 1239.039062 498.5 1262.046875 490.976562 1289.800781 469.390625 L 1336.441406 502.253906 C 1324.539062 536.429688 1324.140625 560.507812 1328.707031 577.886719 Z M 1328.707031 577.886719 " fill-opacity="1" fill-rule="nonzero"/></g></g></g></svg>