<svg xmlns="http://www.w3.org/2000/svg" xmlns:xlink="http://www.w3.org/1999/xlink" width="2000" zoomAndPan="magnify" viewBox="0 0 1500 1499.999933" height="2000" preserveAspectRatio="xMidYMid meet" version="1.0"><defs><clipPath id="41baead930"><path d="M 82.160156 416.082031 L 1001 416.082031 L 1001 1083.582031 L 82.160156 1083.582031 Z M 82.160156 416.082031 " clip-rule="nonzero"/></clipPath><clipPath id="fc7cf0fe7f"><path d="M 499 416.082031 L 1417.910156 416.082031 L 1417.910156 1083.582031 L 499 1083.582031 Z M 499 416.082031 " clip-rule="nonzero"/></clipPath></defs><g clip-path="url(#41baead930)"><path fill="#1cb785" d="M 666.515625 583.039062 L 416.082031 583.039062 C 323.871094 583.039062 249.125 657.785156 249.125 749.996094 C 249.125 842.203125 323.871094 916.953125 416.082031 916.953125 L 416.082031 1083.910156 C 231.664062 1083.910156 82.167969 934.410156 82.167969 749.996094 C 82.167969 565.578125 231.664062 416.082031 416.082031 416.082031 L 666.515625 416.082031 C 850.933594 416.082031 1000.429688 565.578125 1000.429688 749.996094 L 1000.429688 833.472656 L 833.472656 833.472656 L 833.472656 749.996094 C 833.472656 657.785156 758.722656 583.039062 666.515625 583.039062 Z M 666.515625 583.039062 " fill-opacity="1" fill-rule="evenodd"/></g><g clip-path="url(#fc7cf0fe7f)"><path fill="#1cb785" d="M 833.472656 916.953125 L 1083.910156 916.953125 C 1176.117188 916.953125 1250.867188 842.203125 1250.867188 749.996094 C 1250.867188 657.785156 1176.117188 583.039062 1083.910156 583.039062 L 1083.910156 416.082031 C 1268.324219 416.082031 1417.824219 565.578125 1417.824219 749.996094 C 1417.824219 934.410156 1268.324219 1083.910156 1083.910156 1083.910156 L 833.472656 1083.910156 C 649.058594 1083.910156 499.558594 934.410156 499.558594 749.996094 L 499.558594 666.515625 L 666.515625 666.515625 L 666.515625 749.996094 C 666.515625 842.203125 741.265625 916.953125 833.472656 916.953125 Z M 833.472656 916.953125 " fill-opacity="1" fill-rule="evenodd"/></g></svg>